<svg width="59" height="46" fill="none" xmlns="http://www.w3.org/2000/svg"><path fill-rule="evenodd" clip-rule="evenodd" d="M33.059 46c14.083 0 25.5-10.297 25.5-23S47.142 0 33.059 0c-14.084 0-25.5 10.297-25.5 23 0 3.443.838 6.709 2.341 9.64L0 45.535l16.347-5.16C20.823 43.877 26.666 46 33.06 46z" fill="#EE4623"/><path d="M48.91 26.541l-3.738 2.47a1.115 1.115 0 01-1.524-.273 1.178 1.178 0 01.29-1.67l3.736-2.472a1.115 1.115 0 011.371.102 1.176 1.176 0 01-.136 1.843z" fill="#353635"/><path d="M49.137 26.347l-2.5-1.061.324-.216 2.354 1.004c-.045.1-.105.192-.178.273zM48.56 26.775l-.325.216-2.54-1.08.328-.218 2.536 1.082zM47.612 27.398l-.329.222-2.54-1.076.328-.226 2.54 1.08zM46.664 28.025l-.325.215-2.531-1.074c.04-.036.082-.07.127-.099l.186-.123 2.543 1.08z" fill="#FCB91F"/><path d="M42.907 25.754l3.471 5.34-.937.62-3.471-5.34.937-.62zM18.945 26.551l3.745 2.459c.24.16.532.22.816.167.282-.052.535-.21.705-.442.175-.238.253-.533.22-.826a1.157 1.157 0 00-.513-.849l-3.743-2.459a1.113 1.113 0 00-1.368.108 1.181 1.181 0 00-.082 1.65c.064.074.138.138.22.192z" fill="#353635"/><path d="M18.724 26.359l2.498-1.07-.324-.213-2.353 1.012c.046.099.107.19.18.27zM19.302 26.784l.327.215 2.536-1.086-.328-.215-2.535 1.086zM20.246 27.407l.328.213 2.539-1.082-.329-.22-2.538 1.09zM21.195 28.03l.326.215 2.525-1.082a.93.93 0 00-.127-.099l-.187-.121-2.537 1.088z" fill="#FCB91F"/><path d="M24.947 25.75l-3.45 5.351.938.618 3.45-5.352-.938-.617z" fill="#353635"/><path d="M41.63 32.639c.01.084.053.28.05.363-.023.2-.258.314-.561.315l-14.362.145c-.233 0-.422-.124-.425-.28l.035-.236 15.264-.307z" fill="#091D28"/><path opacity=".2" d="M43.183 16.058l-7.55.082a.42.42 0 01-.293-.122.421.421 0 01-.093-.458.42.42 0 01.22-.23.403.403 0 01.16-.033l7.547-.08a.41.41 0 01.383.257.424.424 0 01-.087.457.412.412 0 01-.288.124v.003z" fill="#fff"/><path d="M44.854 14.497l-17.267.178a4.575 4.575 0 00-1.92.44 4.662 4.662 0 00-1.575 1.211c-.09.104-.174.212-.253.324-.584.833-.235 1.83-.225 2.858l-.654.825.081 8.047a4.83 4.83 0 001.4 3.365 4.628 4.628 0 003.326 1.371l12.592-.13a4.615 4.615 0 003.296-1.432c.432-.45.772-.979 1-1.559.23-.583.346-1.205.34-1.832v-.009l-.141-13.657zm-2.867 9.545a2.56 2.56 0 01-.888 1.974c-.44.381-1 .594-1.58.602l-10.23.104a2.457 2.457 0 01-1.747-.739 2.579 2.579 0 01-.035-3.582 2.46 2.46 0 011.736-.774l10.225-.094a2.472 2.472 0 011.771.723c.475.477.744 1.12.75 1.793l-.002-.007z" fill="#122A40"/><path d="M42.497 21.073h-16.67v6.245h16.67v-6.245z" fill="#122A40"/><path d="M26.017 24.183a2.748 2.748 0 00.969 2.109 2.648 2.648 0 001.698.627l10.956.017a2.647 2.647 0 001.7-.63 2.748 2.748 0 00.974-2.099 2.748 2.748 0 00-.78-1.93 2.64 2.64 0 00-1.88-.802l-10.963-.013a2.646 2.646 0 00-1.892.794 2.748 2.748 0 00-.783 1.93l.001-.003z" fill="#F0977E"/><path d="M26.066 24.7c.116.62.441 1.183.922 1.591a2.655 2.655 0 001.7.628l10.953.017a2.643 2.643 0 001.701-.63c.482-.405.81-.964.927-1.582a2.748 2.748 0 00-.923-1.591 2.648 2.648 0 00-1.698-.628l-10.955-.017a2.645 2.645 0 00-1.701.636c-.48.404-.806.96-.926 1.576z" fill="#F9C197"/><path d="M18.513 14.723L21.489 13l3.312 5.954-2.28 1.32-.475-.477-.622.162-2.911-5.236z" fill="#F26E26"/><path d="M17.15 15.975l-.591 3.433 6.603 1.18.589-3.434-6.6-1.179z" fill="#F26E26"/><path d="M44.926 16.705l.037 3.662-22.172.229v-.813a4.78 4.78 0 01.9-2.858l21.235-.22z" fill="#F26E26"/><path opacity=".2" d="M44.122 18.207l-7.548.082a.435.435 0 01-.16-.03.422.422 0 01-.257-.388.406.406 0 01.03-.162.41.41 0 01.379-.27l7.547-.08c.055 0 .109.01.16.03.05.022.095.053.134.092.04.041.07.09.09.144a.41.41 0 01.033.16.434.434 0 01-.122.29.413.413 0 01-.289.124l.003.008zM35.236 19.893l-3.616.035a.352.352 0 01-.357-.351.354.354 0 01.214-.331.347.347 0 01.136-.027l3.615-.036a.344.344 0 01.327.217.36.36 0 01-.185.47.33.33 0 01-.133.029l-.001-.006z" fill="#fff"/><ellipse cx="31" cy="24.5" rx="1" ry="1.5" fill="#122A40"/><ellipse cx="37" cy="24.5" rx="1" ry="1.5" fill="#122A40"/></svg>