<svg width="522" height="507" fill="none" xmlns="http://www.w3.org/2000/svg"><path d="M153.833 77.425l26.517 32.571-6.049 4.925-22.35-27.453-17.03 13.864-4.167-5.118 23.079-18.789zM127.21 134.066l-11.68 17.307-5.321-3.591 11.68-17.308 5.321 3.592zm-15.256-9.572l-13.257 19.645-5.421-3.658 17.62-26.111 34.814 23.494-17.15 25.415-5.421-3.659 12.787-18.949-23.972-16.177zM80.275 158.558l35.317 29.562-2.078 7.393-45.564 6.886 2.208-7.856 40.848-5.407-.844 3.004-32.063-25.842 2.176-7.74zm7.003 11.006l5.323 3.678-6.138 21.834-6.46.365 7.275-25.877zM62.533 229.564l41.933-2.374.977 17.253c.21 3.714-.209 6.922-1.258 9.626-1.047 2.744-2.648 4.897-4.803 6.462-2.155 1.564-4.77 2.433-7.845 2.607-3.075.174-5.772-.394-8.09-1.705-2.277-1.314-4.09-3.274-5.44-5.882-1.308-2.571-2.066-5.713-2.277-9.427l-.732-12.939 3.731 3.274-15.755.892-.44-7.787zM64.087 257l14.616-11.465.471 8.327-14.612 11.524-.475-8.386zm13.804-20.493l3.518-3.685.712 12.58c.194 3.435 1.079 5.969 2.654 7.602 1.577 1.674 3.683 2.436 6.319 2.287 2.676-.152 4.683-1.147 6.02-2.985 1.341-1.799 1.914-4.415 1.72-7.85l-.712-12.58 4.031 3.258-24.262 1.373zM67.057 293.167l38.594-16.568 2.533 5.899-19.327 36.961-1.254-2.922 29.717-12.757 3.053 7.112-38.594 16.568-2.532-5.899L98.574 284.6l1.254 2.922-29.717 12.757-3.054-7.112zM102.408 363.09c-.849-1.063-1.213-2.257-1.093-3.581.152-1.349.79-2.473 1.915-3.371 1.188-.948 2.426-1.322 3.712-1.12 1.318.176 2.401.796 3.25 1.858.848 1.063 1.212 2.257 1.092 3.581-.089 1.299-.727 2.423-1.915 3.371-1.125.899-2.363 1.272-3.712 1.121-1.318-.177-2.401-.796-3.249-1.859zM134.647 397.589c-2.574-1.902-4.661-4.091-6.263-6.567-1.546-2.485-2.569-5.106-3.069-7.862-.443-2.765-.331-5.542.337-8.331.668-2.789 1.929-5.438 3.783-7.947 1.854-2.51 4.016-4.493 6.485-5.951 2.47-1.458 5.096-2.353 7.877-2.684 2.806-.365 5.611-.157 8.417.623 2.829.748 5.547 2.085 8.153 4.01 2.767 2.044 4.936 4.393 6.507 7.045 1.594 2.621 2.491 5.447 2.688 8.477l-6.87.818c-.248-2.223-.89-4.214-1.927-5.975-1.013-1.792-2.404-3.343-4.173-4.65-1.77-1.307-3.608-2.218-5.516-2.732a14.406 14.406 0 00-5.631-.356c-1.846.277-3.609.914-5.29 1.91-1.649 1.02-3.115 2.398-4.399 4.135-1.283 1.738-2.17 3.544-2.661 5.42-.458 1.899-.549 3.772-.272 5.618.31 1.87.975 3.629 1.994 5.278 1.052 1.672 2.463 3.162 4.232 4.469 1.77 1.308 3.648 2.198 5.636 2.672 2.011.442 4.127.439 6.348-.009l1.201 6.855c-2.931.669-5.896.642-8.893-.08-2.997-.723-5.895-2.118-8.694-4.186zM196.638 432.511c-3.162-.872-5.93-2.195-8.304-3.97-2.373-1.774-4.288-3.858-5.745-6.251a20.811 20.811 0 01-2.751-7.854c-.378-2.843-.153-5.768.676-8.776.829-3.008 2.129-5.616 3.9-7.825 1.782-2.247 3.911-4.025 6.388-5.334 2.487-1.347 5.205-2.175 8.153-2.482 2.947-.308 5.983-.031 9.106.83 3.162.871 5.911 2.189 8.246 3.953 2.374 1.775 4.284 3.878 5.729 6.31 1.457 2.393 2.374 5.011 2.752 7.854.389 2.804.168 5.71-.661 8.718-.829 3.007-2.134 5.635-3.916 7.882-1.781 2.248-3.91 4.026-6.387 5.335-2.477 1.308-5.189 2.117-8.137 2.424-2.909.319-5.926.047-9.049-.814zm1.76-6.61c2.044.564 4.029.737 5.956.522 1.926-.216 3.701-.785 5.325-1.706a14.605 14.605 0 004.193-3.699c1.211-1.533 2.104-3.341 2.678-5.423.574-2.083.729-4.073.464-5.972-.216-1.926-.785-3.701-1.706-5.325a13.355 13.355 0 00-3.683-4.251c-1.544-1.173-3.338-2.041-5.381-2.604-2.044-.564-4.029-.738-5.956-.522a14.146 14.146 0 00-5.341 1.764c-1.623.922-3.04 2.149-4.251 3.683-1.162 1.505-2.03 3.299-2.604 5.381-.564 2.044-.738 4.029-.522 5.956a15.245 15.245 0 001.748 5.398c.922 1.624 2.155 3.022 3.699 4.194 1.543 1.173 3.337 2.041 5.381 2.604zM250.378 444.387l-4.123-41.797 18.271-1.803c4.538-.447 8.605.036 12.201 1.449 3.596 1.414 6.503 3.579 8.72 6.496 2.217 2.916 3.534 6.484 3.95 10.704.412 4.179-.182 7.936-1.782 11.269-1.605 3.294-4.032 5.985-7.283 8.074-3.25 2.089-7.145 3.358-11.683 3.805l-18.271 1.803zm7.114-7.334l10.151-1.001c3.145-.311 5.793-1.175 7.944-2.593 2.191-1.422 3.797-3.268 4.819-5.54 1.062-2.275 1.452-4.846 1.169-7.712-.287-2.906-1.171-5.351-2.653-7.335-1.446-2.027-3.382-3.525-5.809-4.491-2.387-.97-5.153-1.301-8.297-.99l-10.151 1.001 2.827 28.661zM318.094 409.084l18.988-8.684 2.67 5.838-18.988 8.684-2.67-5.838zm8.031 16.119l21.554-9.856 2.719 5.947-28.646 13.101-17.468-38.195 27.883-12.752 2.72 5.948-20.789 9.507 12.027 26.3zM377.547 405.21c-1.074.834-2.272 1.182-3.595 1.045-1.347-.17-2.462-.823-3.345-1.96-.933-1.201-1.29-2.443-1.071-3.727.194-1.315.828-2.39 1.902-3.224 1.074-.834 2.272-1.183 3.595-1.045 1.298.106 2.413.76 3.345 1.96.883 1.137 1.24 2.379 1.071 3.726-.194 1.316-.828 2.391-1.902 3.225zM411.618 374.634c-3.467 4.6-7.481 7.234-12.043 7.903-4.538.636-9.25-.887-14.137-4.571l-18.925-14.267 4.696-6.229 18.685 14.087c3.45 2.6 6.511 3.756 9.183 3.466 2.697-.321 5.069-1.839 7.116-4.554 2.046-2.715 2.841-5.397 2.384-8.046-.458-2.649-2.411-5.274-5.861-7.875l-18.685-14.086 4.623-6.133 18.925 14.267c4.887 3.684 7.636 7.811 8.249 12.381.637 4.537-.766 9.09-4.21 13.657zM442.251 328.462l-40.116-12.439 5.118-16.505c1.102-3.553 2.617-6.413 4.545-8.579 1.94-2.204 4.193-3.662 6.758-4.374 2.566-.712 5.32-.612 8.262.3 2.942.912 5.269 2.388 6.982 4.427 1.713 2.038 2.746 4.515 3.099 7.431.364 2.876-.005 6.092-1.107 9.645l-3.838 12.378-2.465-4.408 15.072 4.674-2.31 7.45zm-11.96-11.875l-4.641 2.204 3.732-12.034c1.019-3.286 1.095-5.963.229-8.033-.892-2.119-2.599-3.57-5.121-4.352-2.559-.793-4.788-.563-6.684.692-1.885 1.216-3.337 3.467-4.356 6.753l-3.731 12.034-2.638-4.461 23.21 7.197zM459.781 253.622c.074 3.279-.315 6.429-1.167 9.449-.892 3.021-2.058 5.427-3.498 7.22l-6.119-2.562c1.281-1.709 2.334-3.814 3.158-6.313a22.64 22.64 0 001.148-7.648c-.05-2.199-.33-3.973-.841-5.322-.51-1.349-1.173-2.334-1.987-2.956a4.534 4.534 0 00-2.841-.896c-1.279.029-2.289.512-3.028 1.448-.779.938-1.372 2.152-1.778 3.642a48.939 48.939 0 00-1.21 4.888 95.434 95.434 0 01-1.259 5.37 25.471 25.471 0 01-1.99 4.906 10.895 10.895 0 01-3.399 3.618c-1.419.952-3.248 1.453-5.488 1.504-2.279.051-4.372-.502-6.279-1.659-1.947-1.196-3.509-3.021-4.684-5.475-1.217-2.494-1.869-5.66-1.955-9.499a29.88 29.88 0 01.79-7.519c.584-2.494 1.455-4.675 2.613-6.541l6.114 2.322c-1.077 1.905-1.853 3.863-2.328 5.875-.515 2.012-.751 3.937-.71 5.777.049 2.159.349 3.913.899 5.261.55 1.308 1.252 2.272 2.106 2.893.853.581 1.82.859 2.9.835 1.279-.029 2.309-.492 3.089-1.39.739-.937 1.312-2.13 1.72-3.58.406-1.489.809-3.139 1.208-4.948.36-1.809.779-3.599 1.26-5.37.479-1.811 1.122-3.446 1.929-4.905a9.677 9.677 0 013.34-3.616c1.418-.952 3.228-1.453 5.427-1.503 2.239-.051 4.333.522 6.28 1.719 1.907 1.157 3.469 2.982 4.685 5.475 1.177 2.494 1.808 5.661 1.895 9.5zM444.614 199.479l-8.538 3.559-29.018-12.861-3-8.231 24.532 10.537 5.932 2.436 10.092 4.56zm11.685 3.149l-39.461 14.382-2.671-7.328 39.461-14.382 2.671 7.328zm-10.027-27.51l-12.476 21.662-7.123-2.896 16.476-27.334 3.123 8.568zM429.492 140.698l-34.854 23.434-4.352-6.473 34.854-23.434 4.352 6.473zM413.408 116.614l-28.888 30.487-5.662-5.365 24.348-25.696-15.94-15.104 4.539-4.791 21.603 20.469zM371 78.854l-19.094 37.409-6.948-3.546 16.094-31.53-19.56-9.984 3.001-5.878L371 78.855z" fill="#fff"/></svg>