<svg width="728" height="728" fill="none" xmlns="http://www.w3.org/2000/svg"><g filter="url(#filter0_f_272_196)"><circle cx="364" cy="364" r="264" fill="url(#paint0_radial_272_196)"/></g><circle cx="363" cy="349" r="125" fill="#D9D9D9"/><g clip-path="url(#clip0_272_196)"><path d="M315.957 399.83l4.397-8.207 92.998-66.236 3.957 6.25-101.352 68.193z" fill="#E6E7E8"/><path d="M434.805 321.485l-15.803 10.445a4.717 4.717 0 01-3.449.722 4.777 4.777 0 01-2.996-1.878 4.976 4.976 0 01-.936-3.461 4.893 4.893 0 011.633-3.18c.163-.158.341-.299.532-.422l15.796-10.451a4.714 4.714 0 015.797.434 4.972 4.972 0 011.126 5.816 4.65 4.65 0 01-.765 1.162c-.275.31-.589.584-.935.813z" fill="#353635"/><path d="M435.771 320.665l-10.574-4.488 1.37-.912 9.956 4.245a4.52 4.52 0 01-.752 1.155zM433.325 322.476l-1.37.911-10.745-4.568 1.388-.918 10.727 4.575zM429.32 325.111l-1.389.936-10.744-4.55 1.388-.954 10.745 4.568zM425.313 327.759l-1.376.912-10.702-4.544c.169-.153.349-.292.539-.416l.788-.52 10.751 4.568z" fill="#FCB91F"/><path d="M409.426 318.158l14.677 22.578-3.963 2.624-14.677-22.584 3.963-2.618z" fill="#353635"/><path d="M410.227 399.561l-4.422-8.176-93.144-66.005-3.932 6.257 101.498 67.924z" fill="#E6E7E8"/><path d="M291.195 321.528l15.833 10.396a4.68 4.68 0 003.449.709 4.792 4.792 0 002.985-1.871 4.965 4.965 0 00.929-3.492 4.889 4.889 0 00-1.639-3.174 3.885 3.885 0 00-.532-.416l-15.826-10.396a4.71 4.71 0 00-5.786.453 4.894 4.894 0 00-1.516 2.727 4.995 4.995 0 00.397 3.095c.193.424.453.814.771 1.155.273.313.588.586.935.814z" fill="#353635"/><path d="M290.26 320.714l10.562-4.519-1.37-.905-9.95 4.281c.196.416.451.801.758 1.143zM292.7 322.512l1.382.912 10.727-4.593-1.388-.911-10.721 4.592zM296.693 325.148l1.389.899 10.732-4.574-1.388-.93-10.733 4.605zM300.705 327.784l1.376.905 10.678-4.574a3.94 3.94 0 00-.538-.416l-.789-.514-10.727 4.599z" fill="#FCB91F"/><path d="M316.568 318.14l-14.591 22.627 3.969 2.611 14.591-22.627-3.969-2.611z" fill="#353635"/><path d="M418.678 386.223c2.82-5.436 1.352-14.444-3.277-20.12v-.03l-17.124-20.94c-4.647-5.675-10.702-5.858-13.521-.409-2.819 5.449-1.333 14.469 3.308 20.181l17.124 20.921c4.623 5.681 10.671 5.877 13.497.446l-.007-.049z" fill="#091D28"/><path opacity=".37" d="M397.103 348.858l19.668 28.351-21.111-7.088 1.443-21.263z" fill="#000"/><path d="M309.334 386.223c-2.825-5.436-1.358-14.444 3.278-20.12v-.03l17.123-20.94c4.63-5.675 10.702-5.858 13.515-.409 2.813 5.449 1.34 14.469-3.302 20.181l-17.123 20.921c-4.63 5.681-10.678 5.877-13.503.446l.012-.049z" fill="#091D28"/><path opacity=".37" d="M330.291 348.858l-16.218 24.511 17.643-3.248-1.425-21.263z" fill="#000"/><path d="M359.94 436.786V437h-27.801v-.667l-.33-38.026v-1.223a20.726 20.726 0 013.932-12.653c2.562-3.381 6.073-5.32 9.754-5.387h.043c3.669-.055 7.228 1.767 9.864 5.063a20.536 20.536 0 014.202 12.525l.104 12.286.232 27.868z" fill="#122A40"/><path d="M360.117 436.902a14.566 14.566 0 00-4.14-10.2 13.908 13.908 0 00-19.974 0 14.584 14.584 0 00-4.14 10.194l28.254.006z" fill="#091D28"/><path d="M396.02 437v-.202l-.379-38.851a19.243 19.243 0 00-4.281-12.133c-2.691-3.193-6.311-4.96-10.066-4.893a12.075 12.075 0 00-5.412 1.382 14.493 14.493 0 00-4.568 3.804 17.902 17.902 0 00-3.021 5.639 20.508 20.508 0 00-1.015 6.604v.031l.348 38.613h28.394V437z" fill="#122A40"/><path d="M395.685 437a14.581 14.581 0 00-4.141-10.207 13.926 13.926 0 00-9.992-4.221 13.939 13.939 0 00-9.993 4.221 14.612 14.612 0 00-4.14 10.201l28.266.006z" fill="#091D28"/><path d="M397.855 387.098c.092 8.36-7.24 15.209-16.383 15.288l-34.889.325c-9.136.073-16.609-6.648-16.689-15.008l-.092-8.36v-.403l-.042-3.602-.061-5.853V364.25l-.337-23.183c-.092-8.366 7.241-15.216 16.384-15.289l34.894-.318c9.174-.086 16.641 6.635 16.726 15.013l.257 23.105.043 4.232v1.223l.079 7.522v1.92l.11 8.623z" fill="#122A40"/><path d="M397.519 381.698h-.056l-68.144.746-.037-4.238-.067-6.904 45.138-.496 23.007-.251h.055l.079 9.039v1.835l.025.269z" fill="#091D28"/><path opacity=".35" d="M364.747 364.672a10.581 10.581 0 01-1.224 3.015c-1.657 3.229-4.421 6.201-8.158 8.745a35.291 35.291 0 01-3.241 1.957h-.036l-21.967 9.461-.746.324v-.483l-.013-4.244-.073-6.905v-6.182a4.891 4.891 0 001.719-.337l24.296-6.794c1.988-.856 1.376-12.787 3.058-12.671a7.142 7.142 0 014.556 1.89 7.706 7.706 0 012.14 3.742c.257.973-.042 1.688-.067 2.881v.758c.102 1.618.02 3.243-.244 4.843z" fill="#000"/><path d="M395.574 343.042c.037.355.22 1.18.208 1.535-.098.844-1.088 1.327-2.373 1.333l-60.726.612c-.985 0-1.786-.526-1.798-1.181l.147-1.003 64.542-1.296z" fill="#091D28"/><path opacity=".2" d="M402.136 272.928l-31.923.349a1.77 1.77 0 01-.666-.129 1.82 1.82 0 01-.575-.385 1.72 1.72 0 01-.379-.569 1.771 1.771 0 01-.141-.685c0-.234.044-.466.129-.685.083-.217.21-.414.373-.581.158-.165.347-.298.556-.391a1.71 1.71 0 01.673-.141l31.916-.336c.23-.002.456.044.667.135a1.73 1.73 0 01.954.954c.09.215.137.445.141.678.001.469-.181.919-.508 1.254a1.744 1.744 0 01-1.223.52l.006.012z" fill="#fff"/><path d="M409.2 266.33l-73.013.752a19.334 19.334 0 00-8.115 1.865 19.718 19.718 0 00-6.66 5.119 17.24 17.24 0 00-1.07 1.369c-2.47 3.523-.997 7.737-.954 12.085l-2.764 3.485.342 34.027a20.43 20.43 0 005.92 14.231 19.582 19.582 0 0014.066 5.797l53.241-.55a19.51 19.51 0 007.559-1.609 19.713 19.713 0 006.378-4.446 20.165 20.165 0 004.232-6.592 20.564 20.564 0 001.437-7.748v-.037l-.599-57.748zm-12.121 40.362a11.26 11.26 0 01-.165 2.024 10.825 10.825 0 01-3.59 6.323 10.434 10.434 0 01-6.684 2.544l-43.255.441a10.39 10.39 0 01-7.387-3.125 10.904 10.904 0 01-.147-15.148 10.392 10.392 0 017.339-3.272l43.236-.398a10.464 10.464 0 017.491 3.058 10.88 10.88 0 013.168 7.583l-.006-.03z" fill="#122A40"/><path d="M399.238 294.137h-70.487v26.406h70.487v-26.406z" fill="#122A40"/><path d="M329.552 307.285c.001.734.066 1.467.196 2.189.489 2.624 1.867 5 3.901 6.727a11.198 11.198 0 007.18 2.654l46.325.074a11.192 11.192 0 007.191-2.667 11.616 11.616 0 003.914-6.69c.135-.72.202-1.451.202-2.183a11.617 11.617 0 00-3.296-8.158 11.165 11.165 0 00-7.95-3.394l-46.355-.055a11.186 11.186 0 00-7.999 3.357 11.618 11.618 0 00-3.315 8.158l.006-.012z" fill="#F0977E"/><path d="M329.76 309.474a11.615 11.615 0 003.895 6.727c2.01 1.7 4.554 2.64 7.186 2.654l46.319.074a11.179 11.179 0 007.191-2.667 11.564 11.564 0 003.92-6.69 11.62 11.62 0 00-3.901-6.727 11.196 11.196 0 00-7.18-2.654l-46.325-.074a11.19 11.19 0 00-7.191 2.691 11.618 11.618 0 00-3.914 6.666z" fill="#F9C197"/><path d="M345.782 309.285a9.936 9.936 0 013.706-1.939 9.78 9.78 0 012.826-.379 11.53 11.53 0 016.519 2.318M345.782 309.285h13.045-13.045zM369.052 309.285s5.663-7.467 13.05 0" stroke="#0F2336" stroke-width="4.17" stroke-miterlimit="10" stroke-linecap="round"/><path d="M297.818 267.284L310.404 260l14.004 25.177-9.644 5.584-2.006-2.018-2.629.685-12.311-22.144z" fill="#F26E26"/><path d="M292.058 272.58l-2.501 14.518 27.923 4.99 2.489-14.524-27.911-4.984z" fill="#F26E26"/><path d="M409.505 275.668l.159 15.484-93.756.966v-3.436a20.216 20.216 0 013.81-12.085l89.787-.929z" fill="#F26E26"/><path opacity=".2" d="M406.105 282.016l-31.916.348c-.231 0-.459-.044-.673-.128a1.781 1.781 0 01-.789-.655 1.76 1.76 0 01-.3-.984 1.729 1.729 0 01.123-.685c.083-.226.209-.434.373-.612a1.734 1.734 0 011.229-.532l31.917-.336c.23 0 .458.044.672.128.212.093.405.223.569.386.167.176.296.384.379.611.092.215.14.446.141.679a1.834 1.834 0 01-.514 1.223c-.322.33-.762.519-1.223.526l.012.031zM368.532 289.146l-15.289.147a1.49 1.49 0 01-1.51-1.486 1.481 1.481 0 01.422-1.07 1.464 1.464 0 011.058-.44l15.288-.153c.296-.005.586.08.832.244.247.164.438.399.55.673a1.526 1.526 0 01-.305 1.657 1.454 1.454 0 01-.477.33c-.177.08-.369.122-.563.123l-.006-.025z" fill="#fff"/><path opacity=".35" d="M398.577 386.682h-.055l-19.514-8.409h-.037a35.291 35.291 0 01-3.241-1.957l-.288-.208a24 24 0 01-7.858-8.561 16.608 16.608 0 01-1.223-3.009 13.931 13.931 0 01-.551-5.094v-.031a12.434 12.434 0 01.331-3.363 7.71 7.71 0 012.14-3.743 7.142 7.142 0 014.556-1.89c1.663-.116 1.052 11.809 3.058 12.678l22.486 6.274.086 4.99v1.462l.079 9.032.031 1.829z" fill="#000"/><path d="M367.357 362.355l2.979.611c-1.523 5.314 5.075 13.21 11.619 15.943h.031l24.205 10.072c6.555 2.728 11.974 0 12.096-6.085.122-6.084-5.106-13.227-11.668-15.943l-24.199-10.035c-6.55-2.74-11.968 0-12.103 6.036.019.03-2.96-.612-2.96-.599z" fill="#091D28"/><path opacity=".19" d="M354.179 367.394c.19 1.944 2.636 2.947 4.281 1.737 3.828-2.832 9.32-10.458 7.124-28.052-.146-1.18.184-2.214-.538-2.067-1.59.318-6.054 2.36-9.522 7.039-.715.96-2.483 3.51-2.703 5.161 0 .23.019.459.055.685l1.303 15.497z" fill="#355563"/><path d="M359.395 368.03c-.293.287-.611.562-.917.819a2.674 2.674 0 01-1.144.526 2.655 2.655 0 01-2.336-.715 2.862 2.862 0 01-.673-1.083 2.917 2.917 0 01-.128-.648l-.612-7.4-.293-3.223-.496-6.531c0-.183-.036-.416-.036-.611 0-2.025 2.085-4.636 2.795-5.688 3.473-5.131 7.95-7.381 9.515-7.73.404-.092.477.226.489.752 0 .41 0 .948.055 1.517 2.006 17.857-2.513 26.37-6.219 30.015z" fill="#091D28"/><path d="M376.506 366.929c-.04.486-.209.952-.489 1.351a2.667 2.667 0 01-1.095.906 2.629 2.629 0 01-1.4.208 2.664 2.664 0 01-1.303-.551c-3.828-3.094-9.307-11.473-7.094-30.816.147-1.296-.177-2.446.545-2.269 1.583.355 6.048 2.6 9.515 7.73a24.332 24.332 0 012.532 4.532 5.05 5.05 0 01.269 2.153l-1.48 16.756zM358.808 368.617c-.29.872-.674 1.711-1.143 2.501-1.994 3.406-5.688 6.476-10.806 8.886l-24.939 9.387a12.54 12.54 0 01-5.504.887c-3.926-.337-6.55-3.058-6.428-7.382a14.823 14.823 0 012.447-7.338c.238-.391.495-.771.764-1.131.19-.257.379-.514.581-.765a20.943 20.943 0 018.733-6.495l24.927-9.319a12.784 12.784 0 015.234-.912 7.38 7.38 0 014.318 1.572 6.292 6.292 0 012.024 3.107c.258.876.372 1.789.337 2.703v.03c.1 1.445-.085 2.895-.545 4.269z" fill="#091D28"/><path opacity=".16" d="M358.717 348.583s1.156 6.494-1.071 9.601a3.82 3.82 0 01-1.437 1.223 3.72 3.72 0 01-1.834.385 4.964 4.964 0 00-.771.043c-7.338.74-30.18 10.886-30.18 10.886-7.809 2.067-9.252 13.582-9.252 13.582v.294c-1.034 2.758.691 4.409 2.917 5.387-3.926-.33-6.55-3.057-6.428-7.381.152-2.62.996-5.152 2.447-7.339.238-.385.495-.758.77-1.131.184-.257.373-.514.575-.758a20.92 20.92 0 018.733-6.495l24.749-9.216a12.531 12.531 0 014.342-.758c.434 0 1.07.22.966-.055l-.513-6.795a2.49 2.49 0 010-.532c.22-1.834 2.207-4.586 2.923-5.644a19.312 19.312 0 019.424-7.565v1.058l-6.36 11.21zM371.675 348.583s-.82 5.503 1.07 9.601c.501 1.095 1.731 1.614 3.266 1.614.255-.006.511.009.764.043 7.339.74 30.18 10.886 30.18 10.886 7.809 2.067 9.259 13.582 9.259 13.582v.294c1.027 2.758-.697 4.409-2.923 5.387 3.926-.33 6.555-3.057 6.433-7.393a14.945 14.945 0 00-2.446-7.339 25.835 25.835 0 00-.771-1.137 16.26 16.26 0 00-.581-.759 21.05 21.05 0 00-8.898-6.298l-24.137-9.956a11.6 11.6 0 00-3.333-1.187c-.386-.085-1.156 0-1.786-.116a.296.296 0 01-.171-.116.286.286 0 01-.055-.202l.477-5.076a9.546 9.546 0 000-1.015c-.22-1.835-2.398-4.574-3.107-5.608a19.291 19.291 0 00-9.607-7.485v1.058l6.366 11.222z" fill="#47A6FF"/><path opacity=".46" d="M366.666 352.227c1.547-2.642.508-4.403 0-5.014a.382.382 0 01-.08-.22 72.596 72.596 0 00-.293-3.823.366.366 0 000-.14.546.546 0 00-.086-.116.491.491 0 00-.122-.074.527.527 0 00-.281.037.886.886 0 00-.116.085.437.437 0 00-.074.129.555.555 0 000 .141v.073a.401.401 0 01-.098.257 3.83 3.83 0 00-.691 3.853.398.398 0 010 .146.366.366 0 01-.049.147c-.464.82-.893 2.324.239 4.373a.39.39 0 01.043.232c-.41 3.85-1.022 7.675-1.835 11.46a.445.445 0 00.037.257c.041.08.111.141.195.171a.37.37 0 00.447-.165c1.834-3.204 2.562-7.436 2.758-11.619a.36.36 0 01.006-.19z" fill="#000"/><path opacity=".3" d="M363.523 337.728s-3.67 2.232-5.205 5.192M363.994 338.89s-3.425 2.097-4.892 4.892M367.309 337.728s3.669 2.232 5.204 5.192M366.838 338.89s3.431 2.097 4.892 4.892" stroke="#8C8C8C" stroke-miterlimit="10" stroke-linecap="round"/><path d="M370.048 308.453h10.965a.467.467 0 01.471.471v.416a.052.052 0 01-.004.021.094.094 0 01-.012.018.042.042 0 01-.018.011.054.054 0 01-.021.005h-11.381a.472.472 0 010-.942z" stroke="#0F2336" stroke-width="4.17" stroke-miterlimit="10" stroke-linecap="round"/></g><defs><radialGradient id="paint0_radial_272_196" cx="0" cy="0" r="1" gradientUnits="userSpaceOnUse" gradientTransform="rotate(11.404 -1640.793 2004.793) scale(179.545)"><stop stop-color="#EE4623"/><stop offset="1" stop-color="#EE4623" stop-opacity="0"/></radialGradient><clipPath id="clip0_272_196"><path fill="#fff" transform="translate(289 260)" d="M0 0h147.994v177H0z"/></clipPath><filter id="filter0_f_272_196" x="0" y="0" width="728" height="728" filterUnits="userSpaceOnUse" color-interpolation-filters="sRGB"><feFlood flood-opacity="0" result="BackgroundImageFix"/><feBlend in="SourceGraphic" in2="BackgroundImageFix" result="shape"/><feGaussianBlur stdDeviation="50" result="effect1_foregroundBlur_272_196"/></filter></defs></svg>