<svg width="263" height="235" fill="none" xmlns="http://www.w3.org/2000/svg"><path d="M83.173 55.255l1.736 2.103c1.914 1.102 4.028.554 6.053.754 1.281.125 2.79-.62 3.76.87.13.706.159 1.426.087 2.139-.061.566-.102 1.131-.191 1.694-.949 2.22-.116 4.761-1.279 6.937-1.663 1.303-3.392 2.536-4.974 3.934-1.377 1.216-3.948 1.741-1.67 4.782 2.367 3.153 3.584.852 5.253-.308.437-.29.888-.58 1.646-1.094-.096 4.401-.868 8.397-.35 12.447.543 4.125 2.467 7.691 4.407 11.628-8.314-1.16-16.25-2.495-24.239-3.325-7.52-.78-13.015 3.421-14.218 10.265-1.374 7.833 3.575 14.004 12.147 15.208 9.377 1.317 18.733 2.815 28.133 3.952 2.721.328 2.646 1.593 2.218 3.481-.122 2.864 2.383 2.902 4.049 3.43 13.787 4.308 27.49 8.895 41.294 13.148 6.499 2.002 12.891 4.326 19.45 6.139 2.054.581 4.628.821 3.349 4.431-2.062 5.886-1.897 5.965-6.111 4.671-20.326-6.177-40.456-12.984-60.787-19.149-1.681-.51-3.376-1.72-5.241-.458.159 3.51-2.242 2.779-4.26 2.512a16624.64 16624.64 0 01-40.812-5.474c-9.116-1.233-18.22-2.594-27.342-3.705-7.896-.961-14.348 3.803-16.217 11.666-.61 2.06-.868 4.119-.023 6.185 1.735 7.071 6.004 10.842 13.183 11.811 28.885 3.905 57.766 7.822 86.643 11.75 4.796.647 9.255 2.394 14.048 3.923-2.624.998-5.125 1.532-7.216 3.087-8.437 6.275-8.278 18.794.648 24.524 8.323 5.342 16.855 10.384 25.497 15.197 9.692 5.399 20.748-.461 22.116-11.503 1.689-13.636 3.792-27.208 4.77-40.908.098-1.361.144-2.832 1.269-3.949 5.834 9.177 11.803 10.601 21.431 5.222 5.426-3.04 10.912-5.973 16.298-9.083 8.488-4.909 9.651-14.605 2.496-21.339-6.074-5.719-12.321-11.251-18.49-16.865-.014-1.854-1.886-2.321-2.863-3.85 7.647-.909 14.498-3.317 19.695-9.197 1.328-1.503 2.566-3.003 2.843-5.072 3.656-6.963 3.7-14.72 4.697-22.25 1.377-10.375 2.603-20.767 3.908-31.15-3.251-2.467-7.231-2.322-10.947-2.783-32.896-4.021-65.742-8.414-98.623-12.615-3.809-.484-7.751-2.048-11.665-.229-1.03 4.97-.552 10.192-2.545 14.997-4.454-.525-9-1.779-13.06 1.419z" fill="#1A1A1A"/><path d="M98.791 38.834c32.971 4.28 65.942 8.557 98.913 12.832 7.435.963 14.88 1.865 22.318 2.794 5.013-1.674 10.271-1.027 15.401-1.55 5.177-.527 10.412-.675 15.604-.87 1.874-.072 2.851-.548 2.66-2.704-.381-4.352-.705-8.704-.783-13.073-.05-2.718-.813-3.63-3.737-3.357-4.602.424-9.255.232-13.883.29-4.425-.87-8.876-.336-13.304-.194-1.156.035-2.062.664-2.869 1.538-1.295 1.404-.772-.659-1.373-.888-1.027-.389-2.088-.746-3.112-1.16a8.383 8.383 0 00-.804-.238c-24.636-3.531-49.35-6.456-74.017-9.728-10.932-1.451-21.908-2.574-32.812-4.236-1.801-.29-3.609-.85-5.437-.11-1.377 6.82-2.097 13.734-2.765 20.654z" fill="#E9521E"/><path d="M101.527 18.17c5.183 2.177 10.788 2.032 16.196 2.748 32.103 4.265 64.25 8.307 96.379 12.426 1.073.2 2.464.717 2.814-.751.475-1.999-1.081-2.95-2.637-3.72-6.074-6.626-14.172-8.167-22.574-9.217a11377.722 11377.722 0 01-85.73-11.025c-2.496-.33-3.65.114-3.722 2.797-.055 2.252-.468 4.497-.726 6.743z" fill="#1A1A1A"/><path d="M97.695 142.955l57.618 18.243c3.627 1.16 7.297 2.15 10.895 3.374 2.412.821 3.47.035 3.67-2.394.093-1.108.191-2.274.602-3.287 1.958-4.796 2.024-4.833-3.182-6.475-19.615-6.186-39.25-12.308-58.85-18.537-2.351-.748-5.087-.85-6.75-3.145-1.95 3.876-3.098 8.017-4.003 12.221z" fill="#242424"/><path d="M214.284 28.873c.372.587.774 1.154 1.206 1.698 1.816 2.077 1.021 2.817-1.383 2.773 3.121 2.82 6.531.96 9.851.67 3.76-.339 7.633.772 11.308-.809 1.906-2.611 3.642-5.39 5.765-7.833 1.96-2.246 1.249-3.424-.891-4.86a120.068 120.068 0 01-9.871-7.253c-2.135-1.776-3.344-1.668-4.957.661-3.526 5.08-7.335 9.978-11.028 14.954z" fill="#CB471B"/><path d="M211.41 107.86c-7.164 9.604-12.977 12.676-25.055 13.036a17.746 17.746 0 005.379 5.089c9.834-4.042 19.667-8.048 29.457-12.157 1.446-.606 2.644-.769 3.899.206.448-4.169-.868-7.616-4.176-10.256-2.583 2.722-5.773 4.03-9.504 4.082z" fill="#CECDCC"/><path d="M220.913 103.773l4.176 10.256c.954 2.341 1.9 4.685 2.866 7.021.726 1.741.949 3.574 3.98 2.422 3.242-1.23 2.178-2.785 1.342-4.74-.992-2.321-1.927-4.677-2.893-7.018 1.016-3.586-1.619-6.189-2.481-9.284a3.333 3.333 0 00-1.631-1.779c-1.174-2.715-2.574-5.364-3.471-8.173-.717-2.274-1.874-1.99-3.453-1.29-1.527.678-3.181 1.006-1.932 3.507 1.449 2.898 2.36 6.049 3.497 9.078z" fill="#1C1C1C"/><path d="M253.213 101.263c1.779-2.533 1.735-5.054-.535-7.155-3.057-2.84-6.192-1.604-9.214.273 2.033 4.018 5.555 5.927 9.749 6.882z" fill="#383837"/><path d="M91.08 47.563c-1.041-1.645-2.042-3.333-3.867-4.261-4.049-2.052-7.606.322-8.17 5.44 4.19 1.424 8.271 1.737 12.037-1.178z" fill="#3A3A38"/><path d="M226.825 102.284l3.566 9.429 5.963-2.846c-1.937-3.986-5.243-6.02-9.529-6.583z" fill="#3C3B37"/><path d="M243.926 106.03l2.745-1.248c-2.314-4.267-6.455-5.994-10.661-7.618l-3.126 1.305c2.776 3.841 6.635 6.104 11.042 7.561z" fill="#3F3D36"/><path d="M238.63 108.119l3.043-1.12c-2.412-4.259-6.554-6.116-10.814-7.813l-2.675 1.224c2.374 4.065 6.481 5.785 10.446 7.709z" fill="#3D3B35"/><path d="M241.256 95.092l-3.274 1.227c2.603 4.027 6.713 5.901 10.887 7.688l2.97-1.259c-2.557-3.9-6.6-5.736-10.583-7.656z" fill="#3E3B34"/><path d="M79.772 50.923a3.724 3.724 0 001.651 2.182c4.503.87 8.983 1.549 13.122-1.286l-1.97-2.428c-4.338-.023-8.812-1.308-12.803 1.532z" fill="#3A3936"/><path d="M94.545 51.82c-4.294 1.221-8.775.58-13.121 1.285.127 1.088.757 1.767 1.735 2.15 4.298-1.03 8.804-.163 13.075-1.425-.318-.873-.806-1.607-1.689-2.01zM79.772 50.923c4.182-1.236 8.662 0 12.81-1.535a2.351 2.351 0 00-1.502-1.825l-12.037 1.175c-.191.877-.154 1.672.729 2.185z" fill="#D39312"/><path d="M230.853 99.186l10.811 7.813 2.262-.969-11.043-7.56c-.743.052-1.506.04-2.03.716z" fill="#EBA20F"/><path d="M238.631 108.119l-10.444-7.709-1.903.253.547 1.618 9.524 6.586c.853.041 1.735.174 2.276-.748z" fill="#E79E0B"/><path d="M248.869 104.008l-10.883-7.689-1.975.845 10.66 7.618c.772-.142 1.669.067 2.198-.774z" fill="#F1A306"/><path d="M241.257 95.092l10.582 7.657c.654-.317 1.267-.668 1.374-1.486l-9.75-6.882c-.783.055-1.668-.139-2.206.711z" fill="#ECA00B"/><path d="M95.82 61.287l.027-2.652c-3.245-.928-6.499-1.941-9.446.775l2.074 2.669c2.53.493 5.035.766 7.346-.792z" fill="#464135"/><path d="M86.401 59.41c3.103-.807 6.282-.685 9.446-.775 1.177-2.237-.535-1.953-1.735-1.895-3.066.151-6.126.407-9.189.618.026 1.027.625 1.628 1.478 2.052z" fill="#E99F0B"/><path d="M93.345 69.75c2.462-1.741 1.14-4.782 2.39-6.935-2.184-1.227-4.084-.676-5.823.923.81 2.19 3.821 3.136 3.433 6.011z" fill="#494438"/><path d="M89.912 63.738l5.822-.926.086-1.526c-2.47.07-4.986-.29-7.346.79a2.176 2.176 0 001.438 1.662z" fill="#DB9812"/><path d="M100.963 65.444c1.157 5.86 5.411 10.215 11.279 10.984 18.84 2.46 37.685 4.877 56.554 7.085 8.552.998 14.646-3.62 15.58-11.147-.344-6.458-4.607-10.94-11.731-12.316-10.412-2.01-20.994-2.704-31.458-4.288-8.237-1.247-16.517-2.15-24.78-3.191-7.112-.896-12.743 2.118-15.097 7.587-.758 1.758-1.085 3.464-.347 5.286z" fill="#F7B180"/><path d="M100.963 65.444c.289-7.975 7.499-13.02 16.092-11.779 12.899 1.866 25.853 3.348 38.778 5.054 5.978.786 12.011 1.378 17.883 2.68 5.7 1.266 9.02 5.447 10.669 10.968 2.464-7.486-4.237-15.58-10.724-16.393-12.636-1.578-25.258-3.29-37.888-4.952-5.894-.775-11.785-1.57-17.677-2.35-10.122-1.346-17.064 4.108-17.784 13.996-.075.998-.199 1.996.651 2.776z" fill="#F0826A"/><path d="M180.171 150.233l-3.618-3.191c-.868 2.013-2.065 3.609-1.397 6.046l5.015-2.855z" fill="#E1E1E1"/><path d="M150.498 34.815c1.561-.276 4.049.97 4.031-2.144 0-2.568-2.045-2.67-3.878-2.901-12.775-1.64-25.553-3.255-38.324-4.932-1.707-.22-3.222-.21-3.572 1.86-.321 1.9.636 2.808 2.565 3.051 10.834 1.376 21.651 2.922 32.502 4.164 2.233.264 4.336 1.442 6.676.902zM190.895 46.751c.33.02 1.487-.374 1.791-1.915.321-1.619-.24-2.84-2.005-3.095-7.901-1.138-15.8-2.295-23.715-3.285-1.554-.194-2.658 1.06-2.838 2.597-.188 1.596.963 2.118 2.392 2.321 7.771 1.047 15.537 2.144 24.375 3.377z" fill="#EE7142"/><path d="M134.173 69.523c4.388 6.113 9.304 6.029 12.463-.33a42.934 42.934 0 00-12.463.33z" fill="#404249"/><path d="M123.276 68.29l-9.986-3.38c-2.314-.783-2.525.58-1.958 2.156 1.174 3.284 3.56 4.517 7.007 3.693 1.652-.395 3.26-.798 4.937-2.469z" fill="#3C3F49"/></svg>