<svg width="728" height="728" viewBox="0 0 728 728" fill="none" xmlns="http://www.w3.org/2000/svg">
<g filter="url(#filter0_f_272_196)">
<circle cx="364" cy="364" r="264" fill="url(#paint0_radial_272_196)"/>
</g>
<circle cx="363" cy="349" r="125" fill="#D9D9D9"/>
<g clip-path="url(#clip0_272_196)">
<path d="M315.957 399.83L320.354 391.623L413.352 325.387L417.309 331.637L315.957 399.83Z" fill="#E6E7E8"/>
<path d="M434.805 321.485L419.002 331.93C417.989 332.607 416.753 332.866 415.553 332.652C414.351 332.432 413.278 331.76 412.557 330.774C411.826 329.777 411.492 328.543 411.621 327.313C411.745 326.085 412.328 324.949 413.254 324.133C413.417 323.975 413.595 323.834 413.786 323.711L429.582 313.26C430.458 312.674 431.505 312.398 432.556 312.477C433.606 312.556 434.601 312.984 435.379 313.694C436.166 314.414 436.7 315.369 436.903 316.416C437.105 317.463 436.966 318.548 436.505 319.51C436.31 319.933 436.052 320.325 435.74 320.672C435.465 320.982 435.151 321.256 434.805 321.485Z" fill="#353635"/>
<path d="M435.771 320.665L425.197 316.177L426.567 315.265L436.523 319.51C436.333 319.931 436.079 320.321 435.771 320.665Z" fill="#FCB91F"/>
<path d="M433.325 322.476L431.955 323.387L421.21 318.819L422.598 317.901L433.325 322.476Z" fill="#FCB91F"/>
<path d="M429.32 325.111L427.931 326.047L417.187 321.497L418.575 320.543L429.32 325.111Z" fill="#FCB91F"/>
<path d="M425.313 327.759L423.937 328.671L413.235 324.127C413.404 323.974 413.584 323.835 413.774 323.711L414.562 323.191L425.313 327.759Z" fill="#FCB91F"/>
<path d="M409.426 318.158L424.103 340.736L420.14 343.36L405.463 320.776L409.426 318.158Z" fill="#353635"/>
<path d="M410.227 399.561L405.805 391.385L312.661 325.38L308.729 331.637L410.227 399.561Z" fill="#E6E7E8"/>
<path d="M291.195 321.528L307.028 331.924C308.042 332.6 309.279 332.855 310.477 332.633C311.674 332.411 312.74 331.742 313.462 330.762C314.199 329.756 314.531 328.51 314.391 327.27C314.265 326.043 313.679 324.91 312.752 324.096C312.587 323.942 312.409 323.803 312.22 323.68L296.394 313.284C295.517 312.703 294.471 312.431 293.423 312.513C292.374 312.595 291.384 313.026 290.608 313.737C289.819 314.456 289.286 315.414 289.092 316.464C288.89 317.512 289.03 318.596 289.489 319.559C289.682 319.983 289.942 320.373 290.26 320.714C290.533 321.027 290.848 321.3 291.195 321.528Z" fill="#353635"/>
<path d="M290.26 320.714L300.822 316.195L299.452 315.29L289.502 319.571C289.698 319.987 289.953 320.372 290.26 320.714Z" fill="#FCB91F"/>
<path d="M292.7 322.512L294.082 323.424L304.809 318.831L303.421 317.92L292.7 322.512Z" fill="#FCB91F"/>
<path d="M296.693 325.148L298.082 326.047L308.814 321.473L307.426 320.543L296.693 325.148Z" fill="#FCB91F"/>
<path d="M300.705 327.784L302.081 328.689L312.759 324.115C312.592 323.961 312.412 323.822 312.221 323.699L311.432 323.185L300.705 327.784Z" fill="#FCB91F"/>
<path d="M316.568 318.14L301.977 340.767L305.946 343.378L320.537 320.751L316.568 318.14Z" fill="#353635"/>
<path d="M418.678 386.223C421.498 380.787 420.03 371.779 415.401 366.103V366.073L398.277 345.133C393.63 339.458 387.575 339.275 384.756 344.724C381.937 350.173 383.423 359.193 388.064 364.905L405.188 385.826C409.811 391.507 415.859 391.703 418.685 386.272L418.678 386.223Z" fill="#091D28"/>
<path opacity="0.37" d="M397.103 348.858L416.771 377.209L395.66 370.121L397.103 348.858Z" fill="black"/>
<path d="M309.334 386.223C306.509 380.787 307.976 371.779 312.612 366.103V366.073L329.735 345.133C334.365 339.458 340.437 339.275 343.25 344.724C346.063 350.173 344.59 359.193 339.948 364.905L322.825 385.826C318.195 391.507 312.147 391.703 309.322 386.272L309.334 386.223Z" fill="#091D28"/>
<path opacity="0.37" d="M330.291 348.858L314.073 373.369L331.716 370.121L330.291 348.858Z" fill="black"/>
<path d="M359.94 436.786V437H332.139V436.333L331.809 398.307V397.084C331.7 392.55 333.081 388.105 335.741 384.431C338.303 381.05 341.814 379.111 345.495 379.044H345.538C349.207 378.989 352.766 380.811 355.402 384.107C358.144 387.705 359.621 392.108 359.604 396.632L359.708 408.918L359.94 436.786Z" fill="#122A40"/>
<path d="M360.117 436.902C360.124 433.091 358.638 429.429 355.977 426.702C354.68 425.364 353.128 424.3 351.413 423.574C349.697 422.847 347.853 422.473 345.99 422.473C344.127 422.473 342.283 422.847 340.568 423.574C338.852 424.3 337.3 425.364 336.003 426.702C333.345 429.429 331.859 433.088 331.863 436.896L360.117 436.902Z" fill="#091D28"/>
<path d="M396.02 437V436.798L395.641 397.947C395.648 393.531 394.137 389.247 391.36 385.814C388.669 382.621 385.049 380.854 381.294 380.921C379.407 380.952 377.553 381.426 375.882 382.303C374.113 383.242 372.557 384.537 371.314 386.107C369.977 387.79 368.953 389.7 368.293 391.746C367.596 393.877 367.253 396.108 367.278 398.35V398.381L367.626 436.994H396.02V437Z" fill="#122A40"/>
<path d="M395.685 437C395.692 433.187 394.206 429.523 391.544 426.793C390.246 425.457 388.692 424.395 386.976 423.67C385.259 422.945 383.415 422.572 381.552 422.572C379.689 422.572 377.844 422.945 376.128 423.67C374.412 424.395 372.858 425.457 371.559 426.793C368.902 429.524 367.416 433.184 367.419 436.994L395.685 437Z" fill="#091D28"/>
<path d="M397.855 387.098C397.947 395.458 390.615 402.307 381.472 402.386L346.583 402.711C337.447 402.784 329.974 396.063 329.894 387.703L329.802 379.343V378.94L329.76 375.338L329.699 369.485V366.593V364.25L329.362 341.067C329.27 332.701 336.603 325.851 345.746 325.778L380.64 325.46C389.814 325.374 397.281 332.095 397.366 340.473L397.623 363.578L397.666 367.81V369.033L397.745 376.555V378.206V378.475L397.855 387.098Z" fill="#122A40"/>
<path d="M397.519 381.698H397.463L329.319 382.444L329.282 378.206L329.215 371.302L374.353 370.806L397.36 370.555H397.415L397.494 379.594V381.429L397.519 381.698Z" fill="#091D28"/>
<g opacity="0.35">
<path opacity="0.35" d="M364.747 364.672C364.497 365.734 364.084 366.751 363.523 367.687C361.866 370.916 359.102 373.888 355.365 376.432C354.32 377.142 353.239 377.795 352.124 378.389H352.088L330.121 387.85L329.375 388.174V387.691L329.362 383.447L329.289 376.542V373.124V370.36C329.877 370.352 330.46 370.238 331.008 370.023L355.304 363.229C357.292 362.373 356.68 350.442 358.362 350.558C360.057 350.627 361.672 351.297 362.918 352.448C363.973 353.466 364.715 354.765 365.058 356.19C365.315 357.163 365.016 357.878 364.991 359.071C364.991 359.254 364.991 359.438 364.991 359.615C364.991 359.645 364.991 359.798 364.991 359.829C365.093 361.447 365.011 363.072 364.747 364.672Z" fill="black"/>
</g>
<path d="M395.574 343.042C395.611 343.397 395.794 344.222 395.782 344.577C395.684 345.421 394.694 345.904 393.409 345.91L332.683 346.522C331.698 346.522 330.897 345.996 330.885 345.341L331.032 344.338L395.574 343.042Z" fill="#091D28"/>
<path opacity="0.2" d="M402.136 272.928L370.213 273.277C369.985 273.277 369.759 273.234 369.547 273.148C369.332 273.057 369.137 272.927 368.972 272.763C368.809 272.601 368.68 272.407 368.593 272.194C368.501 271.977 368.453 271.745 368.452 271.509C368.452 271.275 368.496 271.043 368.581 270.824C368.664 270.607 368.791 270.41 368.954 270.243C369.112 270.078 369.301 269.945 369.51 269.852C369.722 269.76 369.951 269.712 370.183 269.711L402.099 269.375C402.329 269.373 402.555 269.419 402.766 269.51C402.981 269.597 403.176 269.726 403.339 269.89C403.503 270.054 403.633 270.249 403.72 270.464C403.81 270.679 403.857 270.909 403.861 271.142C403.862 271.611 403.68 272.061 403.353 272.396C403.03 272.724 402.59 272.911 402.13 272.916L402.136 272.928Z" fill="white"/>
<path d="M409.2 266.33L336.187 267.082C333.379 267.107 330.61 267.743 328.072 268.947C325.51 270.155 323.239 271.901 321.412 274.066C321.033 274.504 320.675 274.961 320.342 275.435C317.872 278.958 319.345 283.172 319.388 287.52L316.624 291.005L316.966 325.032C317.006 330.367 319.13 335.474 322.886 339.263C324.725 341.119 326.917 342.588 329.333 343.584C331.748 344.58 334.339 345.082 336.952 345.06L390.193 344.51C392.795 344.483 395.365 343.936 397.752 342.901C400.152 341.857 402.32 340.346 404.13 338.455C405.958 336.555 407.396 334.316 408.362 331.863C409.336 329.397 409.824 326.766 409.799 324.115V324.078L409.2 266.33ZM397.079 306.692C397.085 307.37 397.03 308.047 396.914 308.716C396.482 311.175 395.214 313.408 393.324 315.039C391.465 316.648 389.098 317.549 386.64 317.583L343.385 318.024C342.008 318.018 340.646 317.739 339.378 317.202C338.11 316.666 336.961 315.883 335.998 314.899C334.015 312.885 332.892 310.18 332.864 307.354C332.837 304.528 333.908 301.802 335.851 299.751C336.796 298.746 337.932 297.939 339.191 297.377C340.451 296.815 341.811 296.51 343.19 296.479L386.426 296.081C387.815 296.068 389.193 296.331 390.479 296.856C391.766 297.381 392.934 298.157 393.917 299.139C395.924 301.155 397.061 303.878 397.085 306.722L397.079 306.692Z" fill="#122A40"/>
<path d="M399.238 294.137H328.751V320.543H399.238V294.137Z" fill="#122A40"/>
<path d="M329.552 307.285C329.553 308.019 329.618 308.752 329.748 309.474C330.237 312.098 331.615 314.474 333.649 316.201C335.657 317.902 338.198 318.841 340.829 318.855L387.154 318.929C389.79 318.915 392.337 317.97 394.345 316.262C396.377 314.546 397.759 312.184 398.259 309.572C398.394 308.852 398.461 308.121 398.461 307.389C398.474 304.342 397.291 301.413 395.165 299.231C394.132 298.165 392.897 297.316 391.532 296.733C390.167 296.15 388.699 295.846 387.215 295.837L340.86 295.782C339.37 295.781 337.895 296.077 336.521 296.654C335.148 297.23 333.903 298.075 332.861 299.139C330.728 301.318 329.538 304.248 329.546 307.297L329.552 307.285Z" fill="#F0977E"/>
<path d="M329.76 309.474C330.247 312.097 331.623 314.473 333.655 316.201C335.665 317.901 338.209 318.841 340.841 318.855L387.16 318.929C389.796 318.916 392.344 317.971 394.351 316.262C396.389 314.549 397.773 312.187 398.271 309.572C397.782 306.948 396.404 304.573 394.37 302.845C392.363 301.144 389.821 300.205 387.19 300.191L340.865 300.117C338.226 300.138 335.678 301.091 333.674 302.808C331.647 304.518 330.265 306.871 329.76 309.474Z" fill="#F9C197"/>
<path d="M345.782 309.285C346.866 308.383 348.129 307.722 349.488 307.346C350.406 307.082 351.358 306.955 352.314 306.967C354.673 307.054 356.948 307.863 358.833 309.285" stroke="#0F2336" stroke-width="4.17" stroke-miterlimit="10" stroke-linecap="round"/>
<path d="M345.782 309.285H358.827H345.782Z" stroke="#0F2336" stroke-width="4.17" stroke-miterlimit="10" stroke-linecap="round"/>
<path d="M369.052 309.285C369.052 309.285 374.715 301.818 382.102 309.285" stroke="#0F2336" stroke-width="4.17" stroke-miterlimit="10" stroke-linecap="round"/>
<path d="M297.818 267.284L310.404 260L324.408 285.177L314.764 290.761L312.758 288.743L310.129 289.428L297.818 267.284Z" fill="#F26E26"/>
<path d="M292.058 272.58L289.557 287.098L317.48 292.088L319.969 277.564L292.058 272.58Z" fill="#F26E26"/>
<path d="M409.505 275.668L409.664 291.152L315.908 292.118V288.682C315.85 284.349 317.186 280.113 319.718 276.597L409.505 275.668Z" fill="#F26E26"/>
<path opacity="0.2" d="M406.105 282.016L374.189 282.364C373.958 282.364 373.73 282.32 373.516 282.236C373.195 282.1 372.92 281.872 372.727 281.581C372.531 281.29 372.427 280.948 372.427 280.597C372.421 280.363 372.463 280.13 372.55 279.912C372.633 279.686 372.759 279.478 372.923 279.3C373.082 279.134 373.273 279.001 373.485 278.909C373.695 278.816 373.922 278.768 374.152 278.768L406.069 278.432C406.299 278.432 406.527 278.476 406.741 278.56C406.953 278.653 407.146 278.783 407.31 278.946C407.477 279.122 407.606 279.33 407.689 279.557C407.781 279.772 407.829 280.003 407.83 280.236C407.817 280.694 407.634 281.13 407.316 281.459C406.994 281.789 406.554 281.978 406.093 281.985L406.105 282.016Z" fill="white"/>
<path opacity="0.2" d="M368.532 289.146L353.243 289.293C353.046 289.299 352.851 289.263 352.668 289.189C352.392 289.079 352.155 288.888 351.988 288.642C351.821 288.395 351.732 288.105 351.733 287.807C351.729 287.61 351.764 287.413 351.837 287.23C351.909 287.046 352.017 286.879 352.155 286.737C352.293 286.597 352.457 286.485 352.639 286.41C352.821 286.334 353.016 286.296 353.213 286.297L368.501 286.144C368.797 286.139 369.087 286.224 369.333 286.388C369.58 286.552 369.771 286.787 369.883 287.061C370.001 287.337 370.035 287.641 369.981 287.936C369.926 288.231 369.786 288.503 369.578 288.718C369.442 288.859 369.28 288.972 369.101 289.048C368.924 289.128 368.732 289.17 368.538 289.171L368.532 289.146Z" fill="white"/>
<g opacity="0.35">
<path opacity="0.35" d="M398.577 386.682H398.522L379.008 378.273H378.971C377.856 377.679 376.775 377.026 375.73 376.316L375.442 376.108C372.161 373.941 369.462 371.001 367.584 367.547C367.079 366.586 366.669 365.578 366.361 364.538C365.864 362.888 365.677 361.161 365.81 359.444V359.413C365.767 358.282 365.878 357.15 366.141 356.05C366.484 354.624 367.226 353.326 368.281 352.307C369.527 351.156 371.142 350.486 372.837 350.417C374.5 350.301 373.889 362.226 375.895 363.095L398.381 369.369L398.467 374.359V375.821L398.546 384.853L398.577 386.682Z" fill="black"/>
</g>
<path d="M367.357 362.355L370.336 362.966C368.813 368.28 375.411 376.176 381.955 378.909H381.986L406.191 388.981C412.746 391.709 418.165 388.981 418.287 382.896C418.409 376.812 413.181 369.669 406.619 366.953L382.42 356.918C375.87 354.178 370.452 356.918 370.317 362.954C370.336 362.984 367.357 362.342 367.357 362.355Z" fill="#091D28"/>
<path opacity="0.19" d="M354.179 367.394C354.369 369.338 356.815 370.341 358.46 369.131C362.288 366.299 367.78 358.673 365.584 341.079C365.438 339.899 365.768 338.865 365.046 339.012C363.456 339.33 358.992 341.372 355.524 346.051C354.809 347.011 353.041 349.561 352.821 351.212C352.821 351.442 352.84 351.671 352.876 351.897L354.179 367.394Z" fill="#355563"/>
<path d="M359.395 368.03C359.102 368.317 358.784 368.592 358.478 368.849C358.144 369.113 357.752 369.293 357.334 369.375C356.916 369.451 356.486 369.426 356.079 369.301C355.673 369.177 355.302 368.957 354.998 368.66C354.695 368.354 354.465 367.984 354.325 367.577C354.258 367.367 354.215 367.149 354.197 366.929L353.585 359.529L353.292 356.306L352.796 349.775C352.796 349.592 352.76 349.359 352.76 349.164C352.76 347.139 354.845 344.528 355.555 343.476C359.028 338.345 363.505 336.095 365.07 335.746C365.474 335.654 365.547 335.972 365.559 336.498C365.559 336.908 365.559 337.446 365.614 338.015C367.62 355.872 363.101 364.385 359.395 368.03Z" fill="#091D28"/>
<path d="M376.506 366.929C376.466 367.415 376.297 367.881 376.017 368.28C375.741 368.676 375.362 368.988 374.922 369.186C374.483 369.382 373.999 369.454 373.522 369.394C373.046 369.331 372.596 369.141 372.219 368.843C368.391 365.749 362.912 357.37 365.125 338.027C365.272 336.731 364.948 335.581 365.67 335.758C367.253 336.113 371.718 338.358 375.185 343.488C376.188 344.904 377.037 346.423 377.717 348.02C377.962 348.71 378.053 349.444 377.986 350.173L376.506 366.929Z" fill="#091D28"/>
<path d="M358.808 368.617C358.518 369.489 358.134 370.328 357.665 371.118C355.671 374.524 351.977 377.594 346.859 380.004L321.92 389.391C320.175 390.096 318.294 390.399 316.416 390.278C312.49 389.941 309.866 387.22 309.988 382.896C310.14 380.277 310.984 377.744 312.435 375.558C312.673 375.167 312.93 374.787 313.199 374.427C313.389 374.17 313.578 373.913 313.78 373.662C316.068 370.765 319.08 368.525 322.513 367.167L347.44 357.848C349.101 357.181 350.885 356.87 352.674 356.936C354.244 356.987 355.757 357.538 356.992 358.508C357.963 359.317 358.669 360.399 359.016 361.615C359.274 362.491 359.388 363.404 359.353 364.318V364.348C359.453 365.793 359.268 367.243 358.808 368.617Z" fill="#091D28"/>
<path opacity="0.16" d="M358.717 348.583C358.717 348.583 359.873 355.077 357.646 358.184C357.277 358.705 356.783 359.126 356.209 359.407C355.641 359.69 355.009 359.822 354.375 359.792C354.117 359.786 353.859 359.801 353.604 359.835C346.266 360.575 323.424 370.721 323.424 370.721C315.615 372.788 314.172 384.303 314.172 384.303V384.597C313.138 387.355 314.863 389.006 317.089 389.984C313.163 389.654 310.539 386.927 310.661 382.603C310.813 379.983 311.657 377.451 313.108 375.264C313.346 374.879 313.603 374.506 313.878 374.133C314.062 373.876 314.251 373.619 314.453 373.375C316.74 370.477 319.753 368.237 323.186 366.88L347.935 357.664C349.326 357.157 350.796 356.9 352.277 356.906C352.711 356.906 353.347 357.126 353.243 356.851L352.73 350.056C352.711 349.88 352.711 349.701 352.73 349.524C352.95 347.69 354.937 344.938 355.653 343.88C357.904 340.415 361.207 337.764 365.077 336.315V337.373L358.717 348.583Z" fill="#47A6FF"/>
<path opacity="0.16" d="M371.675 348.583C371.675 348.583 370.855 354.086 372.745 358.184C373.246 359.279 374.476 359.798 376.011 359.798C376.266 359.792 376.522 359.807 376.775 359.841C384.114 360.581 406.955 370.727 406.955 370.727C414.764 372.794 416.214 384.309 416.214 384.309V384.603C417.241 387.361 415.517 389.012 413.291 389.99C417.217 389.66 419.846 386.933 419.724 382.597C419.567 379.978 418.723 377.447 417.278 375.258C417.033 374.875 416.776 374.496 416.507 374.121C416.324 373.864 416.128 373.613 415.926 373.362C413.565 370.518 410.496 368.346 407.028 367.064L382.891 357.108C381.847 356.544 380.723 356.144 379.558 355.921C379.172 355.836 378.402 355.921 377.772 355.805C377.703 355.788 377.642 355.747 377.601 355.689C377.558 355.631 377.538 355.559 377.546 355.487L378.023 350.411C378.041 350.073 378.041 349.734 378.023 349.396C377.803 347.561 375.625 344.822 374.916 343.788C372.606 340.321 369.235 337.695 365.309 336.303V337.361L371.675 348.583Z" fill="#47A6FF"/>
<path opacity="0.46" d="M366.666 352.227C368.213 349.585 367.174 347.824 366.666 347.213C366.617 347.15 366.589 347.073 366.586 346.993C366.519 345.641 366.415 344.357 366.293 343.17C366.302 343.124 366.302 343.076 366.293 343.03C366.269 342.988 366.241 342.948 366.207 342.914C366.17 342.883 366.129 342.859 366.085 342.84C366.039 342.832 365.991 342.832 365.944 342.84C365.896 342.846 365.849 342.858 365.804 342.877C365.763 342.902 365.724 342.931 365.688 342.962C365.656 343.001 365.631 343.044 365.614 343.091C365.608 343.138 365.608 343.185 365.614 343.232V343.305C365.613 343.399 365.578 343.49 365.516 343.562C365.065 344.082 364.763 344.715 364.641 345.393C364.52 346.071 364.583 346.77 364.825 347.415C364.834 347.463 364.834 347.513 364.825 347.561C364.819 347.613 364.803 347.663 364.776 347.708C364.312 348.528 363.883 350.032 365.015 352.081C365.053 352.152 365.068 352.233 365.058 352.313C364.648 356.163 364.036 359.988 363.223 363.773C363.21 363.861 363.222 363.95 363.26 364.03C363.301 364.11 363.371 364.171 363.455 364.201C363.536 364.232 363.625 364.232 363.706 364.201C363.789 364.171 363.858 364.113 363.902 364.036C365.736 360.832 366.464 356.6 366.66 352.417C366.645 352.354 366.647 352.289 366.666 352.227Z" fill="black"/>
<path opacity="0.3" d="M363.523 337.728C363.523 337.728 359.853 339.96 358.318 342.92" stroke="#8C8C8C" stroke-miterlimit="10" stroke-linecap="round"/>
<path opacity="0.3" d="M363.994 338.89C363.994 338.89 360.569 340.987 359.102 343.782" stroke="#8C8C8C" stroke-miterlimit="10" stroke-linecap="round"/>
<path opacity="0.3" d="M367.309 337.728C367.309 337.728 370.978 339.96 372.513 342.92" stroke="#8C8C8C" stroke-miterlimit="10" stroke-linecap="round"/>
<path opacity="0.3" d="M366.838 338.89C366.838 338.89 370.269 340.987 371.73 343.782" stroke="#8C8C8C" stroke-miterlimit="10" stroke-linecap="round"/>
<path d="M370.048 308.453H381.013C381.138 308.453 381.258 308.502 381.346 308.591C381.434 308.679 381.484 308.799 381.484 308.924V309.34C381.484 309.347 381.483 309.354 381.48 309.361C381.477 309.367 381.473 309.373 381.468 309.379C381.463 309.384 381.457 309.388 381.45 309.39C381.443 309.393 381.436 309.395 381.429 309.395H370.048C369.923 309.395 369.803 309.345 369.715 309.257C369.627 309.168 369.577 309.049 369.577 308.924C369.577 308.799 369.627 308.679 369.715 308.591C369.803 308.502 369.923 308.453 370.048 308.453Z" stroke="#0F2336" stroke-width="4.17" stroke-miterlimit="10" stroke-linecap="round"/>
</g>
<defs>
<filter id="filter0_f_272_196" x="0" y="0" width="728" height="728" filterUnits="userSpaceOnUse" color-interpolation-filters="sRGB">
<feFlood flood-opacity="0" result="BackgroundImageFix"/>
<feBlend mode="normal" in="SourceGraphic" in2="BackgroundImageFix" result="shape"/>
<feGaussianBlur stdDeviation="50" result="effect1_foregroundBlur_272_196"/>
</filter>
<radialGradient id="paint0_radial_272_196" cx="0" cy="0" r="1" gradientUnits="userSpaceOnUse" gradientTransform="translate(364 364) rotate(11.4038) scale(179.545)">
<stop stop-color="#EE4623"/>
<stop offset="1" stop-color="#EE4623" stop-opacity="0"/>
</radialGradient>
<clipPath id="clip0_272_196">
<rect width="147.994" height="177" fill="white" transform="translate(289 260)"/>
</clipPath>
</defs>
</svg>
